<?xml version="1.0" encoding="UTF-8"?>
<!-- Generator: Adobe Illustrator 13.0.2, SVG Export Plug-In . SVG Version: 6.00 Build 14948)  -->
<!DOCTYPE svg PUBLIC "-//W3C//DTD SVG 1.1//EN" "http://www.w3.org/Graphics/SVG/1.1/DTD/svg11.dtd">
<svg version="1.1" id="UHH-Logo_2010" xmlns="http://www.w3.org/2000/svg" xmlns:xlink="http://www.w3.org/1999/xlink" x="0px" y="0px" width="392.463px" height="127.19px" viewBox="0 0 392.463 127.19" enable-background="new 0 0 392.463 127.19" xml:space="preserve">
<g>
	<path d="M120.492,96.585c-6.114,0-7.412-3.509-7.412-7.259V75.869h3.144v13.216c0,2.723,0.865,4.778,4.47,4.778   c3.172,0,4.614-1.391,4.614-5.201V75.869h3.086v12.551C128.394,93.863,125.596,96.585,120.492,96.585z"/>
	<path d="M142.401,96.283v-8.96c0-1.736-0.476-2.744-2.072-2.744c-2.1,0-3.64,2.212-3.64,4.984v6.72h-2.996V82.367h2.856   c0,0.729-0.056,1.932-0.196,2.716l0.028,0.028c0.812-1.792,2.492-3.024,4.844-3.024c3.164,0,4.144,1.988,4.144,4.452v9.744H142.401   z"/>
	<path d="M152.088,80.294c-1.064,0-1.932-0.84-1.932-1.876s0.868-1.876,1.932-1.876c1.036,0,1.904,0.813,1.904,1.876   C153.993,79.455,153.125,80.294,152.088,80.294z M150.577,96.283V82.367h2.996v13.916H150.577z"/>
	<path d="M165.024,96.283h-3.052l-5.208-13.916h3.304l2.604,7.364c0.336,0.952,0.644,1.932,0.896,2.855h0.028   c0.224-0.868,0.504-1.848,0.812-2.744l2.66-7.476h3.22L165.024,96.283z"/>
	<path d="M184.316,89.506h-8.876c-0.084,3.221,1.344,4.677,4.116,4.677c1.428,0,2.912-0.336,4.06-0.896l0.28,2.38   c-1.4,0.588-3.108,0.896-4.816,0.896c-4.34,0-6.72-2.24-6.72-7.141c0-4.199,2.296-7.336,6.356-7.336   c3.976,0,5.684,2.717,5.684,6.021C184.4,88.499,184.372,88.975,184.316,89.506z M178.604,84.298c-1.68,0-2.856,1.232-3.108,3.108   h5.908C181.46,85.502,180.368,84.298,178.604,84.298z"/>
	<path d="M195.74,85.027c-2.772-0.504-4.116,1.428-4.116,5.6v5.656h-2.996V82.367h2.856c0,0.784-0.084,2.016-0.28,3.08h0.056   c0.616-1.876,2.016-3.612,4.62-3.36L195.74,85.027z"/>
	<path d="M201.704,96.563c-1.036,0-2.072-0.112-2.94-0.28l0.084-2.548c0.868,0.252,1.96,0.448,3.024,0.448   c1.624,0,2.744-0.7,2.744-1.849c0-2.8-6.104-1.12-6.104-5.936c0-2.408,1.96-4.313,5.74-4.313c0.812,0,1.764,0.112,2.604,0.252   l-0.084,2.437c-0.84-0.252-1.819-0.393-2.716-0.393c-1.651,0-2.464,0.673-2.464,1.736c0,2.688,6.16,1.316,6.16,5.937   C207.752,94.659,205.428,96.563,201.704,96.563z"/>
	<path d="M213.549,80.294c-1.064,0-1.934-0.84-1.934-1.876s0.869-1.876,1.934-1.876c1.035,0,1.902,0.813,1.902,1.876   C215.451,79.455,214.584,80.294,213.549,80.294z M212.035,96.283V82.367h2.996v13.916H212.035z"/>
	<path d="M225.252,96.53c-2.969,0-3.863-1.125-3.863-4.17v-7.436h-2.66v-2.277h2.66v-4.334l2.967-0.796v5.13h3.668v2.277h-3.641   v6.53c0,2.029,0.42,2.578,1.82,2.578c0.617,0,1.289-0.082,1.82-0.219v2.414C227.211,96.392,226.176,96.53,225.252,96.53z"/>
	<path d="M239.502,96.283c0-0.896,0.029-1.82,0.141-2.576l-0.027-0.027c-0.672,1.651-2.408,2.884-4.621,2.884   c-2.379,0-3.891-1.345-3.891-3.557c0-3.191,3.191-5.04,8.203-5.04v-0.896c0-1.736-0.729-2.632-2.912-2.632   c-1.287,0-2.967,0.392-4.145,1.12l-0.279-2.548c1.373-0.532,3.107-0.925,4.9-0.925c4.256,0,5.432,1.849,5.432,4.704v5.685   c0,1.204,0.027,2.632,0.084,3.808H239.502z M234.352,79.735c-0.953,0-1.68-0.756-1.68-1.708c0-0.924,0.727-1.68,1.68-1.68   c0.951,0,1.707,0.756,1.707,1.68C236.059,78.979,235.303,79.735,234.352,79.735z M239.307,89.983c-4.367,0-5.32,1.315-5.32,2.52   c0,1.036,0.729,1.708,1.904,1.708c2.045,0,3.416-1.96,3.416-3.947V89.983z M239.867,79.735c-0.953,0-1.709-0.756-1.709-1.708   c0-0.924,0.756-1.68,1.709-1.68c0.924,0,1.68,0.756,1.68,1.68C241.547,78.979,240.791,79.735,239.867,79.735z"/>
	<path d="M252.02,96.53c-2.969,0-3.863-1.125-3.863-4.17v-7.436h-2.66v-2.277h2.66v-4.334l2.967-0.796v5.13h3.668v2.277h-3.641v6.53   c0,2.029,0.42,2.578,1.82,2.578c0.617,0,1.289-0.082,1.82-0.219v2.414C253.979,96.392,252.943,96.53,252.02,96.53z"/>
	<path d="M282.963,96.283v-9.164h-9.199v9.164h-3.145V75.869h3.145v8.438h9.199v-8.438h3.115v20.414H282.963z"/>
	<path d="M299.979,96.283c0-0.896,0.027-1.82,0.141-2.576l-0.029-0.027c-0.672,1.651-2.408,2.884-4.619,2.884   c-2.381,0-3.893-1.345-3.893-3.557c0-3.191,3.191-5.04,8.205-5.04v-0.896c0-1.736-0.729-2.632-2.912-2.632   c-1.289,0-2.969,0.392-4.145,1.12l-0.279-2.548c1.371-0.532,3.107-0.925,4.898-0.925c4.256,0,5.434,1.849,5.434,4.704v5.685   c0,1.204,0.027,2.632,0.084,3.808H299.979z M299.783,89.983c-4.369,0-5.32,1.315-5.32,2.52c0,1.036,0.729,1.708,1.904,1.708   c2.043,0,3.416-1.96,3.416-3.947V89.983z"/>
	<path d="M325.432,96.283v-8.876c0-1.736-0.42-2.828-2.016-2.828c-1.793,0-3.584,1.988-3.584,5.04v6.664h-2.941v-8.904   c0-1.567-0.336-2.8-2.016-2.8c-1.904,0-3.557,2.128-3.557,5.04v6.664h-2.996V82.367h2.857c0,0.729-0.057,1.904-0.197,2.716   l0.057,0.028c0.813-1.848,2.549-3.024,4.703-3.024c2.744,0,3.641,1.765,3.865,2.996c0.588-1.344,2.127-2.996,4.648-2.996   c2.66,0,4.143,1.429,4.143,4.593v9.604H325.432z"/>
	<path d="M338.563,96.506c-1.961,0-3.443-0.195-4.957-0.588V75.843h2.996v6.411c0,0.813-0.084,1.933-0.252,2.66h0.057   c0.729-1.735,2.381-2.828,4.424-2.828c3.305,0,5.125,2.353,5.125,6.553C345.955,93.455,343.182,96.506,338.563,96.506z    M340.047,84.579c-2.24,0-3.445,2.604-3.445,4.956v4.313c0.617,0.195,1.316,0.279,2.186,0.279c2.379,0,4.004-1.456,4.004-5.208   C342.791,86.119,341.922,84.579,340.047,84.579z"/>
	<path d="M359.449,96.283c0-0.728,0.057-1.932,0.197-2.716l-0.029-0.028c-0.811,1.792-2.492,3.024-4.844,3.024   c-3.164,0-4.145-1.988-4.145-4.452v-9.744h2.969v8.96c0,1.736,0.477,2.744,2.072,2.744c2.1,0,3.641-2.212,3.641-4.984v-6.72h2.996   v13.916H359.449z"/>
	<path d="M375.467,85.027c-2.771-0.504-4.117,1.428-4.117,5.6v5.656h-2.996V82.367h2.857c0,0.784-0.084,2.016-0.281,3.08h0.057   c0.615-1.876,2.016-3.612,4.619-3.36L375.467,85.027z"/>
	<path d="M384.762,103.451c-3.639,0-5.906-1.4-5.906-4.088c0-1.568,1.035-2.884,2.238-3.5c-0.84-0.42-1.371-1.148-1.371-2.072   c0-1.008,0.615-1.96,1.596-2.38c-1.371-0.756-2.072-2.184-2.072-3.92c0-2.94,2.24-5.404,6.217-5.404c0.84,0,1.539,0.112,2.295,0.28   h4.705v2.353h-2.129c0.588,0.476,0.953,1.315,0.953,2.323c0,3.024-2.102,5.152-6.021,5.152c-0.531,0-1.176-0.056-1.596-0.14   c-0.559,0.224-0.811,0.644-0.811,1.035c0,0.7,0.615,0.98,2.295,0.98h2.381c3.023,0,4.73,1.428,4.73,4.032   C392.266,101.071,389.242,103.451,384.762,103.451z M386.723,96.506h-2.604c-0.252,0-0.533,0-0.756-0.027   c-0.953,0.531-1.541,1.372-1.541,2.323c0,1.484,1.4,2.324,3.416,2.324c2.604,0,4.061-1.12,4.061-2.632   C389.299,97.291,388.486,96.506,386.723,96.506z M385.322,84.298c-1.988,0-3.164,1.204-3.164,2.912c0,1.82,1.121,2.885,3.137,2.885   c1.875,0,3.107-1.036,3.107-2.856C388.402,85.391,387.254,84.298,385.322,84.298z"/>
</g>
<g>
	<polygon fill="#E2001A" points="0.418,0 96.385,0 96.385,95.966 0.418,95.966 0.418,0  "/>
	<polygon fill="#FFFFFF" points="62.113,56.883 63.484,56.883 62.799,55.695 63.484,54.508 62.113,54.508 61.428,53.322    60.742,54.508 59.372,54.508 60.057,55.695 59.372,56.883 60.743,56.883 61.428,58.07 62.113,56.883  "/>
	<polygon fill="#FFFFFF" points="83.566,56.883 84.938,56.883 84.252,55.695 84.938,54.508 83.566,54.508 82.881,53.322    82.195,54.508 80.825,54.508 81.51,55.695 80.825,56.883 82.195,56.883 82.881,58.07 83.566,56.883  "/>
	<path fill="#FFFFFF" d="M68.386,57.432v0.256h-1.501v1.752h1.691v10.955h-3.898V59.686h-6.5l0,10.708h-2.125v1.818h32.203v-1.818   h-2.125V59.686h-6.5v10.708h-3.898V59.439h1.691v-1.752h-1.501c-0.095-1.885-1.032-3.496-2.999-3.932v-1.894h1.408v-1.315h-1.408   v-1.607h-1.539v1.607h-1.408v1.315h1.408v1.898C69.648,54.164,68.386,55.604,68.386,57.432L68.386,57.432z"/>
	<path fill="#FFFFFF" d="M72.155,79.728c-2.374,0-4.298,1.924-4.298,4.297l-0.076,7.197H54.267   c2.007-5.574,3.341-11.184,3.754-17.131h14.134h14.133c0.414,5.947,1.748,11.557,3.755,17.131H76.528l-0.076-7.197   C76.453,81.652,74.528,79.728,72.155,79.728L72.155,79.728z"/>
	<path fill="#FFFFFF" d="M42.2,31.336h-3.85v-10.8H27.099v2.495c0,5.416-3.205,8.662-9.463,8.662c-6.427,0-9.464-2.99-9.464-8.555   V7.276h3.885v15.078c0,3.875,1.352,6.131,5.614,6.131c4.196,0,5.614-2.256,5.614-6.131V7.276h3.814v9.946H38.35V7.276h3.85v9.946   h11.323V7.276h3.85v24.061h-3.85v-10.8H42.2V31.336L42.2,31.336z"/>
</g>
<g>
	<path d="M3.402,125.759c-1.267,0-2.371-0.054-3.402-0.091V113.49c0.959-0.036,2.443-0.091,3.945-0.091   c3.782,0,6.189,1.684,6.189,5.973C10.134,123.57,7.384,125.759,3.402,125.759z M3.782,115.372c-0.542,0-1.049,0.019-1.43,0.055   v8.233c0.326,0.055,0.814,0.091,1.285,0.091c2.298,0,3.963-1.303,3.963-4.198C7.601,116.928,6.569,115.372,3.782,115.372z"/>
	<path d="M12.254,125.687v-12.216h6.642v1.973h-4.289v3.005h4.072v1.918h-4.072v3.312h4.289v2.009H12.254z"/>
	<path d="M27.204,125.687l-3.402-5.049h-0.09v5.049h-2.353v-12.216c0.959-0.054,2.1-0.072,3.511-0.072   c2.696,0,4.434,0.941,4.434,3.438c0,1.81-1.267,3.113-3.113,3.402c0.344,0.452,0.688,0.923,0.996,1.339l2.932,4.108H27.204z    M24.634,115.318c-0.344,0-0.688,0.018-0.923,0.054v3.529c0.163,0.018,0.488,0.036,0.85,0.036c1.412,0,2.28-0.724,2.28-1.864   C26.841,115.897,26.118,115.318,24.634,115.318z"/>
	<path d="M40.977,115.514v3.133h3.925v1.927h-3.925v5.113h-2.341v-12.153h6.5v1.98H40.977z"/>
	<path d="M52.084,125.885c-3.709,0-5.527-2.358-5.527-6.122c0-4.016,2.683-6.428,5.942-6.428c3.241,0,5.527,1.944,5.527,6.104   C58.026,123.455,55.379,125.885,52.084,125.885z M52.282,115.442c-1.674,0-3.223,1.332-3.223,4.069   c0,2.574,1.008,4.249,3.187,4.249c1.584,0,3.277-1.225,3.277-4.141C55.523,116.918,54.371,115.442,52.282,115.442z"/>
	<path d="M65.962,125.687l-3.385-5.023h-0.09v5.023h-2.341v-12.153c0.955-0.055,2.089-0.072,3.493-0.072   c2.683,0,4.411,0.937,4.411,3.421c0,1.801-1.26,3.097-3.097,3.385c0.342,0.45,0.684,0.919,0.99,1.333l2.917,4.087H65.962z    M63.406,115.37c-0.342,0-0.685,0.019-0.918,0.055v3.511c0.162,0.018,0.486,0.036,0.846,0.036c1.404,0,2.269-0.721,2.269-1.854   C65.602,115.946,64.882,115.37,63.406,115.37z"/>
	<path d="M72.837,125.885c-0.864,0-1.729-0.09-2.485-0.288l0.144-2.179c0.684,0.234,1.656,0.432,2.539,0.432   c1.188,0,2.107-0.485,2.107-1.603c0-2.322-5.096-1.26-5.096-5.257c0-2.161,1.71-3.655,4.627-3.655c0.684,0,1.477,0.09,2.197,0.216   l-0.126,2.053c-0.685-0.198-1.44-0.324-2.179-0.324c-1.351,0-2.035,0.612-2.035,1.477c0,2.179,5.113,1.368,5.113,5.168   C77.644,124.21,75.826,125.885,72.837,125.885z"/>
	<path d="M84.951,125.849c-4.249,0-5.618-2.827-5.618-5.852c0-3.854,2.017-6.555,6.086-6.555c0.864,0,1.783,0.108,2.575,0.324   l-0.252,2.125c-0.792-0.234-1.621-0.36-2.449-0.36c-2.269,0-3.385,1.711-3.385,4.069c0,2.646,1.099,4.123,3.547,4.123   c0.738,0,1.729-0.216,2.358-0.504l0.27,2.089C87.184,125.633,86.085,125.849,84.951,125.849z"/>
	<path d="M97.984,125.687v-5.275h-5.149v5.275h-2.341v-12.153h2.341v4.861h5.149v-4.861h2.341v12.153H97.984z"/>
	<path d="M108.135,125.885c-3.835,0-4.7-2.089-4.7-4.411v-7.94h2.341v7.796c0,1.53,0.504,2.611,2.521,2.611   c1.8,0,2.557-0.757,2.557-2.827v-7.58h2.323v7.436C113.176,124.3,111.339,125.885,108.135,125.885z"/>
	<path d="M123.255,125.687l-3.565-6.14c-0.54-0.919-0.954-1.818-1.314-2.611c0.072,1.045,0.108,2.953,0.108,4.412v4.339h-2.269   v-12.153h3.043l3.385,5.798c0.558,0.936,1.044,1.944,1.494,2.862c-0.09-1.225-0.126-3.385-0.126-4.879v-3.781h2.269v12.153H123.255   z"/>
	<path d="M138.34,116.054c-0.972-0.378-2.089-0.612-3.223-0.612c-2.395,0-4.123,1.513-4.123,4.231c0,2.574,1.404,4.087,3.871,4.087   c0.576,0,1.081-0.072,1.548-0.216v-4.231h2.341v5.798c-1.207,0.486-2.701,0.756-4.159,0.756c-3.853,0-6.14-2.269-6.14-5.978   c0-3.817,2.593-6.536,6.806-6.536c1.207,0,2.395,0.217,3.439,0.522L138.34,116.054z"/>
	<path d="M152.073,127.19v-14.114h1.666v14.114H152.073z"/>
	<path d="M170.26,125.759c-1.26,0-2.359-0.055-3.385-0.09v-12.118c0.955-0.036,2.431-0.09,3.925-0.09   c3.763,0,6.158,1.675,6.158,5.941C176.958,123.581,174.221,125.759,170.26,125.759z M170.638,115.424   c-0.54,0-1.044,0.018-1.422,0.054v8.192c0.324,0.054,0.81,0.09,1.278,0.09c2.287,0,3.943-1.296,3.943-4.177   C174.438,116.972,173.411,115.424,170.638,115.424z"/>
	<path d="M179.061,125.687v-12.153h6.608v1.962h-4.267v2.989h4.051v1.908h-4.051v3.295h4.267v1.999H179.061z"/>
	<path d="M193.931,125.687l-3.385-5.023h-0.09v5.023h-2.341v-12.153c0.955-0.055,2.089-0.072,3.493-0.072   c2.683,0,4.411,0.937,4.411,3.421c0,1.801-1.26,3.097-3.097,3.385c0.342,0.45,0.684,0.919,0.99,1.333l2.917,4.087H193.931z    M191.374,115.37c-0.342,0-0.685,0.019-0.918,0.055v3.511c0.162,0.018,0.486,0.036,0.846,0.036c1.404,0,2.269-0.721,2.269-1.854   C193.57,115.946,192.85,115.37,191.374,115.37z"/>
	<path d="M205.305,125.687v-12.153h2.34v10.101h3.943v2.053H205.305z"/>
	<path d="M213.297,125.687v-12.153h6.607v1.962h-4.268v2.989h4.053v1.908h-4.053v3.295h4.268v1.999H213.297z"/>
	<path d="M229.932,125.687v-5.275h-5.15v5.275h-2.34v-12.153h2.34v4.861h5.15v-4.861h2.34v12.153H229.932z"/>
	<path d="M241.234,125.687l-3.385-5.023h-0.09v5.023h-2.34v-12.153c0.953-0.055,2.088-0.072,3.492-0.072   c2.684,0,4.412,0.937,4.412,3.421c0,1.801-1.262,3.097-3.098,3.385c0.342,0.45,0.684,0.919,0.99,1.333l2.916,4.087H241.234z    M238.678,115.37c-0.342,0-0.684,0.019-0.918,0.055v3.511c0.162,0.018,0.486,0.036,0.846,0.036c1.404,0,2.27-0.721,2.27-1.854   C240.875,115.946,240.154,115.37,238.678,115.37z"/>
	<path d="M246.021,125.687v-12.153h6.607v1.962h-4.268v2.989h4.051v1.908h-4.051v3.295h4.268v1.999H246.021z"/>
	<path d="M265.75,127.19v-14.114h1.664v14.114H265.75z"/>
	<path d="M283.598,125.759c-1.26,0-2.357-0.055-3.385-0.09v-12.118c0.955-0.036,2.432-0.09,3.926-0.09   c3.762,0,6.158,1.675,6.158,5.941C290.297,123.581,287.559,125.759,283.598,125.759z M283.977,115.424   c-0.541,0-1.045,0.018-1.424,0.054v8.192c0.324,0.054,0.811,0.09,1.279,0.09c2.287,0,3.943-1.296,3.943-4.177   C287.775,116.972,286.748,115.424,283.977,115.424z"/>
	<path d="M292.398,125.687v-12.153h6.607v1.962h-4.268v2.989h4.053v1.908h-4.053v3.295h4.268v1.999H292.398z"/>
	<path d="M307.27,125.687l-3.385-5.023h-0.092v5.023h-2.34v-12.153c0.955-0.055,2.088-0.072,3.492-0.072   c2.684,0,4.412,0.937,4.412,3.421c0,1.801-1.26,3.097-3.098,3.385c0.344,0.45,0.686,0.919,0.99,1.333l2.918,4.087H307.27z    M304.713,115.37c-0.344,0-0.686,0.019-0.92,0.055v3.511c0.162,0.018,0.486,0.036,0.848,0.036c1.404,0,2.268-0.721,2.268-1.854   C306.908,115.946,306.189,115.37,304.713,115.37z"/>
	<path d="M322.189,125.723c-0.738,0-2.016-0.036-3.547-0.036v-12.136c1.027-0.054,2.611-0.09,4.105-0.09   c2.629,0,4.088,1.063,4.088,3.007c0,1.206-0.775,2.269-1.928,2.719v0.036c1.441,0.306,2.16,1.494,2.16,2.719   C327.068,123.707,325.863,125.723,322.189,125.723z M322.352,115.352c-0.486,0-0.953,0.018-1.369,0.036v3.169   c0.289,0.018,0.576,0.018,0.955,0.018c1.604,0,2.432-0.648,2.432-1.729C324.369,115.946,323.828,115.352,322.352,115.352z    M322.01,120.322c-0.18,0-0.773,0-1.027,0.018v3.403c0.289,0.036,0.738,0.071,1.279,0.071c1.531,0,2.305-0.72,2.305-1.818   C324.566,120.807,323.541,120.322,322.01,120.322z"/>
	<path d="M329.496,125.687v-12.153h2.34v12.153H329.496z"/>
	<path d="M334.969,125.687v-12.153h2.34v10.101h3.943v2.053H334.969z"/>
	<path d="M346.346,125.759c-1.262,0-2.359-0.055-3.385-0.09v-12.118c0.953-0.036,2.43-0.09,3.924-0.09   c3.764,0,6.158,1.675,6.158,5.941C353.043,123.581,350.307,125.759,346.346,125.759z M346.723,115.424   c-0.539,0-1.043,0.018-1.422,0.054v8.192c0.324,0.054,0.811,0.09,1.279,0.09c2.285,0,3.941-1.296,3.941-4.177   C350.521,116.972,349.496,115.424,346.723,115.424z"/>
	<path d="M359.936,125.885c-3.836,0-4.699-2.089-4.699-4.411v-7.94h2.34v7.796c0,1.53,0.504,2.611,2.521,2.611   c1.799,0,2.557-0.757,2.557-2.827v-7.58h2.322v7.436C364.977,124.3,363.141,125.885,359.936,125.885z"/>
	<path d="M375.055,125.687l-3.566-6.14c-0.539-0.919-0.953-1.818-1.314-2.611c0.072,1.045,0.109,2.953,0.109,4.412v4.339h-2.27   v-12.153h3.043l3.385,5.798c0.559,0.936,1.045,1.944,1.494,2.862c-0.09-1.225-0.125-3.385-0.125-4.879v-3.781h2.268v12.153H375.055   z"/>
	<path d="M390.139,116.054c-0.973-0.378-2.088-0.612-3.223-0.612c-2.395,0-4.123,1.513-4.123,4.231c0,2.574,1.404,4.087,3.871,4.087   c0.576,0,1.08-0.072,1.549-0.216v-4.231h2.34v5.798c-1.205,0.486-2.701,0.756-4.158,0.756c-3.854,0-6.141-2.269-6.141-5.978   c0-3.817,2.594-6.536,6.807-6.536c1.205,0,2.395,0.217,3.439,0.522L390.139,116.054z"/>
</g>
</svg>